<?xml version="1.0" encoding="utf-8"?>
<!-- Generator: Adobe Illustrator 27.5.0, SVG Export Plug-In . SVG Version: 6.00 Build 0)  -->
<svg version="1.1" xmlns="http://www.w3.org/2000/svg" xmlns:xlink="http://www.w3.org/1999/xlink" x="0px" y="0px"
	 viewBox="0 0 500 500" style="enable-background:new 0 0 500 500;" xml:space="preserve">
<g id="Background_Complete">
	<g>
		<rect y="382.398" style="fill:#EBEBEB;" width="500" height="0.25"/>
		<rect x="416.779" y="398.494" style="fill:#EBEBEB;" width="33.122" height="0.25"/>
		<rect x="322.527" y="401.208" style="fill:#EBEBEB;" width="8.693" height="0.25"/>
		<rect x="396.586" y="389.208" style="fill:#EBEBEB;" width="19.192" height="0.25"/>
		<rect x="52.459" y="390.888" style="fill:#EBEBEB;" width="43.193" height="0.25"/>
		<rect x="104.556" y="390.888" style="fill:#EBEBEB;" width="6.333" height="0.25"/>
		<rect x="131.471" y="395.111" style="fill:#EBEBEB;" width="93.676" height="0.25"/>
		<path style="fill:#EBEBEB;" d="M237.014,337.8H43.915c-3.147,0-5.708-2.561-5.708-5.708V60.66c0-3.147,2.561-5.708,5.708-5.708
			h193.099c3.146,0,5.707,2.561,5.707,5.708v271.432C242.721,335.239,240.16,337.8,237.014,337.8z M43.915,55.203
			c-3.01,0-5.458,2.448-5.458,5.458v271.432c0,3.01,2.448,5.458,5.458,5.458h193.099c3.009,0,5.457-2.448,5.457-5.458V60.66
			c0-3.009-2.448-5.458-5.457-5.458H43.915z"/>
		<path style="fill:#EBEBEB;" d="M453.31,337.8H260.212c-3.147,0-5.707-2.561-5.707-5.708V60.66c0-3.147,2.561-5.708,5.707-5.708
			H453.31c3.148,0,5.708,2.561,5.708,5.708v271.432C459.019,335.239,456.458,337.8,453.31,337.8z M260.212,55.203
			c-3.009,0-5.457,2.448-5.457,5.458v271.432c0,3.01,2.448,5.458,5.457,5.458H453.31c3.01,0,5.458-2.448,5.458-5.458V60.66
			c0-3.009-2.448-5.458-5.458-5.458H260.212z"/>
	</g>
	<g>
		<g>
			<rect x="71.582" y="159.182" style="fill:#E6E6E6;" width="351.778" height="14.996"/>
			<rect x="420.374" y="157.596" style="fill:#E0E0E0;" width="3.44" height="18.169"/>
			<rect x="304.11" y="157.596" style="fill:#E0E0E0;" width="3.44" height="18.169"/>
			<rect x="187.846" y="157.596" style="fill:#E0E0E0;" width="3.44" height="18.169"/>
			<rect x="71.582" y="157.596" style="fill:#E0E0E0;" width="3.44" height="18.169"/>
			<rect x="353.461" y="157.596" style="fill:#E0E0E0;" width="23.615" height="18.169"/>
			<rect x="363.29" y="135.176" style="fill:#E0E0E0;" width="3.956" height="24.791"/>
			
				<ellipse transform="matrix(0.7071 -0.7071 0.7071 0.7071 12.448 297.4422)" style="fill:#E0E0E0;" cx="365.269" cy="133.695" rx="10.124" ry="10.124"/>
			<path style="fill:#EBEBEB;" d="M372.461,133.695c0,3.972-3.22,7.192-7.192,7.192s-7.192-3.22-7.192-7.192s3.22-7.192,7.192-7.192
				S372.461,129.723,372.461,133.695z"/>
		</g>
		<g>
			<rect x="71.582" y="189.182" style="fill:#E6E6E6;" width="351.778" height="14.996"/>
			<rect x="420.374" y="187.596" style="fill:#E0E0E0;" width="3.44" height="18.169"/>
			<rect x="304.11" y="187.596" style="fill:#E0E0E0;" width="3.44" height="18.169"/>
			<rect x="187.846" y="187.596" style="fill:#E0E0E0;" width="3.44" height="18.169"/>
			<rect x="71.582" y="187.596" style="fill:#E0E0E0;" width="3.44" height="18.169"/>
		</g>
		<g>
			<path style="fill:#E6E6E6;" d="M71.58,220.18v15h250.614c13.147,0,23.806,10.658,23.806,23.806V381.61h15V258.788
				c0-21.323-17.285-38.608-38.608-38.608H71.58z"/>
			<rect x="304.11" y="218.596" style="fill:#E0E0E0;" width="3.44" height="18.169"/>
			<rect x="187.846" y="218.596" style="fill:#E0E0E0;" width="3.44" height="18.169"/>
			<rect x="71.582" y="218.596" style="fill:#E0E0E0;" width="3.44" height="18.169"/>
			
				<rect x="351.78" y="371.259" transform="matrix(-1.836970e-16 1 -1 -1.836970e-16 733.843 26.843)" style="fill:#E0E0E0;" width="3.44" height="18.169"/>
			
				<rect x="351.78" y="265.995" transform="matrix(-1.836970e-16 1 -1 -1.836970e-16 628.5792 -78.4208)" style="fill:#E0E0E0;" width="3.44" height="18.169"/>
		</g>
	</g>
</g>
<g id="Background_Simple" style="display:none;">
	<g style="display:inline;">
		<path style="fill:#407BFF;" d="M88.093,119.3c27.919-59.449,127.059-51.062,165.317-9.255
			c38.258,41.806,50.696,68.599,85.208,52.983c34.512-15.616,78.518-11.44,81.042,38.164s-37.913,108.263-102.09,125.615
			c-64.177,17.352-64.161,78.759-149.1,66.368c-46.31-6.756-47.365-56.86-40.825-98.301S55.715,188.244,88.093,119.3z"/>
		<path style="opacity:0.9;fill:#FFFFFF;" d="M88.093,119.3c27.919-59.449,127.059-51.062,165.317-9.255
			c38.258,41.806,50.696,68.599,85.208,52.983c34.512-15.616,78.518-11.44,81.042,38.164s-37.913,108.263-102.09,125.615
			c-64.177,17.352-64.161,78.759-149.1,66.368c-46.31-6.756-47.365-56.86-40.825-98.301S55.715,188.244,88.093,119.3z"/>
	</g>
</g>
<g id="Shadow_1_">
	<ellipse id="_x3C_Path_x3E__359_" style="fill:#F5F5F5;" cx="250" cy="416.238" rx="193.889" ry="11.323"/>
</g>
<g id="Toolbox">
	<g>
		<path style="fill:none;stroke:#263238;stroke-width:2;stroke-miterlimit:10;" d="M287.923,401.208h-19.121v-2.955
			c0-2.039,1.653-3.692,3.692-3.692h11.736c2.039,0,3.692,1.653,3.692,3.692V401.208z"/>
		<path style="fill:#263238;" d="M300.267,398.619H258.23c-1.299,0-2.351,1.053-2.351,2.351V418h46.74v-17.029
			C302.619,399.672,301.566,398.619,300.267,398.619z"/>
		<path style="opacity:0.2;fill:#FFFFFF;" d="M281.289,398.619H258.23c-1.299,0-2.351,1.053-2.351,2.351V418h27.761v-17.029
			C283.64,399.672,282.587,398.619,281.289,398.619z"/>
		<rect x="255.879" y="404.329" style="opacity:0.2;enable-background:new    ;" width="46.74" height="1.007"/>
	</g>
</g>
<g id="Character_1">
	<g>
		<path style="fill:#E4897B;" d="M135.638,217.035l4.252-4.996c0,0-0.989-4.141,0-5.138c0.989-0.997,3.034-4.24,5.077-4.696
			c2.044-0.456,6.677,4.352,5.053,6.696c-1.624,2.343-3.009,4.49-4.196,4.505c-1.187,0.015-1.187,0.015-1.187,0.015l-5.341,5.177
			L135.638,217.035z"/>
		<path style="fill:#407BFF;" d="M105.968,227.099c5.637,0.761,14.736,2.115,18.692-0.54c3.956-2.655,13.109-13.155,13.109-13.155
			l4.896,2.785c0,0-11.873,18.17-15.236,19.568c-3.363,1.399-22.996,1.365-22.996,1.365L105.968,227.099z"/>
		<path style="opacity:0.6;fill:#FFFFFF;enable-background:new    ;" d="M142.66,216.185c0,0-11.87,18.17-15.23,19.57
			c-1.83,0.76-8.5,1.1-14.19,1.25c-4.75,0.13-8.81,0.12-8.81,0.12l1.12-7.28l0.42-2.75c5.63,0.76,14.73,2.12,18.69-0.54
			c3.96-2.65,13.11-13.15,13.11-13.15L142.66,216.185z"/>
		<path style="opacity:0.2;enable-background:new    ;" d="M113.24,237.005c-4.75,0.13-8.81,0.12-8.81,0.12l1.12-7.28
			C107.37,230.905,111.01,233.335,113.24,237.005z"/>
		<path style="fill:#263238;" d="M77.781,213.404c0,0-4.18,1.847-4.266,7.36c-0.086,5.513-3.053,13.425-2.262,18.964
			c0.791,5.538,6.587,4.868,8.431-2.146c1.843-7.014-1.429-11.563-0.677-15.785c0.752-4.223,4.463-6.318,4.463-6.318L77.781,213.404
			z"/>
		<polygon style="fill:#E4897B;" points="132.774,410.276 127.233,411.254 124.961,403.699 122.887,396.764 129.276,394.533 
			131.132,402.867 		"/>
		<polygon style="opacity:0.2;enable-background:new    ;" points="131.162,403.038 124.988,403.851 122.901,396.841 
			129.283,394.571 		"/>
		<polygon style="fill:#E4897B;" points="95.782,412.829 90.155,412.829 89.231,404.904 88.395,397.671 95.074,396.561 
			95.452,405.17 		"/>
		<polygon style="opacity:0.2;enable-background:new    ;" points="95.452,405.242 89.231,404.969 88.395,397.703 95.074,396.578 		
			"/>
		<g>
			<g>
				<path style="fill:#263238;" d="M131.683,398.641l-9.109,1.605c-9.192-22.902-15.731-42.018-20.348-57.882
					c-2.487-8.56-4.562-16.172-6.051-22.927l0.279,24.931v56.161h-8.977c-22.502-107.174-6.555-131.6-6.555-131.6l26.92-4.482
					c1.023,4.018,1.797,10.591,2.255,15.124l1.215,8.931l10.523,54.353L131.683,398.641z"/>
			</g>
		</g>
		<g>
			<path style="fill:#263238;" d="M88.84,408.992c0.014-0.587,7.232-0.127,7.232-0.127s4.441,4.517,8.754,5.532
				c4.314,1.015,1.903,3.603-2.918,3.603c-4.821,0-8.501,0-11.926,0S88.698,415.082,88.84,408.992z"/>
			<g>
				<path style="fill:#407BFF;" d="M99.87,410.712c-1.009,0-2.612-0.734-2.992-0.915c-0.025-0.012-0.047-0.029-0.064-0.049l0,0h0
					c-0.01-0.012-0.019-0.026-0.026-0.04c-0.021-0.045-0.025-0.097-0.007-0.146c0.025-0.072,0.632-1.757,1.611-2.164
					c0.311-0.129,0.625-0.12,0.934,0.026c0.329,0.156,0.489,0.36,0.474,0.607c-0.021,0.379-0.536,0.76-1.123,1.073
					c0.611-0.06,1.236-0.043,1.619,0.177c0.203,0.117,0.333,0.281,0.386,0.488c0.109,0.428-0.035,0.655-0.175,0.77
					C100.357,410.662,100.134,410.712,99.87,410.712z M97.539,409.677c1.063,0.45,2.386,0.849,2.726,0.569
					c0.03-0.025,0.12-0.099,0.048-0.382c-0.027-0.105-0.094-0.188-0.207-0.253C99.586,409.313,98.349,409.497,97.539,409.677z
					 M98.83,407.689c-0.097,0-0.194,0.021-0.292,0.062c-0.533,0.222-0.989,1.006-1.239,1.552c1.069-0.406,2.102-0.968,2.121-1.293
					c0.006-0.101-0.158-0.195-0.257-0.241C99.051,407.716,98.941,407.689,98.83,407.689z"/>
			</g>
		</g>
		<g>
			<path style="fill:#263238;" d="M125.737,408.992c0.014-0.587,7.232-0.127,7.232-0.127s4.441,4.517,8.754,5.532
				c4.314,1.015,1.903,3.603-2.918,3.603c-4.821,0-8.501,0-11.926,0C123.453,418,125.594,415.082,125.737,408.992z"/>
			<g>
				<path style="fill:#407BFF;" d="M136.766,410.712c-1.009,0-2.612-0.734-2.992-0.915c-0.025-0.012-0.047-0.029-0.064-0.049l0,0h0
					c-0.01-0.012-0.018-0.026-0.026-0.04c-0.021-0.045-0.025-0.097-0.007-0.146c0.025-0.072,0.632-1.757,1.611-2.164
					c0.311-0.129,0.625-0.12,0.934,0.026c0.329,0.156,0.488,0.36,0.474,0.607c-0.021,0.379-0.536,0.76-1.123,1.073
					c0.611-0.06,1.236-0.043,1.619,0.177c0.203,0.117,0.333,0.281,0.385,0.488c0.109,0.428-0.035,0.655-0.175,0.77
					C137.253,410.662,137.03,410.712,136.766,410.712z M134.435,409.677c1.063,0.45,2.386,0.849,2.726,0.569
					c0.03-0.025,0.12-0.099,0.048-0.382c-0.027-0.105-0.094-0.188-0.207-0.253C136.483,409.313,135.245,409.497,134.435,409.677z
					 M135.727,407.689c-0.097,0-0.194,0.021-0.292,0.062c-0.533,0.222-0.989,1.006-1.239,1.552c1.07-0.406,2.102-0.968,2.121-1.293
					c0.006-0.101-0.158-0.195-0.257-0.241C135.947,407.716,135.837,407.689,135.727,407.689z"/>
			</g>
		</g>
		<path style="opacity:0.2;enable-background:new    ;" d="M102.226,342.365c-2.487-8.56-4.426-16.172-5.915-22.927
			c0,0,0.15-13.127,1.739-23.908C98.05,295.53,101.994,326.368,102.226,342.365z"/>
		<g>
			<g>
				<polygon points="88.869,273.313 102.994,272.064 102.994,267.482 88.869,268.702 				"/>
				<polygon points="87.627,268.809 80.541,269.421 79.908,274.105 87.627,273.422 				"/>
				<polygon points="104.074,267.389 104.074,271.969 107.244,271.688 107.244,267.115 				"/>
			</g>
			<g>
				<path style="fill:#FFFFFF;" d="M99.261,267.914c-0.341-0.312-0.798-0.472-1.262-0.43l-3.335,0.288
					c-0.863,0.075-1.515,0.784-1.515,1.651v2.13c0,0.463,0.196,0.909,0.538,1.221c0.306,0.28,0.708,0.435,1.12,0.435
					c0.048,0,0.096-0.002,0.145-0.007l3.335-0.294c0.861-0.076,1.511-0.785,1.511-1.65v-2.123
					C99.798,268.673,99.602,268.228,99.261,267.914z M98.212,272.058l-3.335,0.294c-0.229,0.022-0.445-0.053-0.613-0.208
					c-0.168-0.154-0.26-0.364-0.26-0.591v-2.13c0-0.42,0.315-0.763,0.734-0.8l3.335-0.288c0.024-0.002,0.048-0.003,0.071-0.003
					c0.201,0,0.39,0.074,0.541,0.212c0.168,0.154,0.26,0.364,0.26,0.591v0.323c-0.043-0.007-0.085-0.02-0.131-0.016l-0.934,0.072
					c-0.311,0.024-0.545,0.298-0.521,0.608c0.024,0.311,0.298,0.545,0.608,0.521l0.934-0.072c0.016-0.001,0.029-0.01,0.044-0.012
					v0.699C98.943,271.678,98.629,272.021,98.212,272.058z"/>
			</g>
		</g>
		<g>
			<path style="fill:#407BFF;" d="M75.235,241.1c1.027,3.301,1.828,6.156,2.467,8.712c1.998,7.911,2.418,12.975,2.839,19.609
				l26.703-2.306c1.068-18.807,0.59-29.146,0.105-34.315c-0.534-5.509-1.383-5.711-1.383-5.711s-5.97-0.582-11.163-0.542
				c-4.02,0.137-8.033,0.558-11.989,1.262c-2.874,0.477-5.716,1.115-8.52,1.908c-1.393,0.393-2.178,1.864-1.714,3.236
				c0.285,0.842,0.557,1.66,0.818,2.452C74.078,237.444,74.685,239.337,75.235,241.1z"/>
			<path style="opacity:0.6;fill:#FFFFFF;enable-background:new    ;" d="M72.578,232.959c0.29,0.84,0.56,1.66,0.82,2.46
				c0.08,0.22,0.15,0.44,0.23,0.65c0,0.01,0,0.01,0.01,0.02c0.3,0.97,0.61,1.91,0.9,2.8c0.24,0.76,0.47,1.5,0.69,2.21
				c0.75,2.39,1.38,4.54,1.9,6.51h0.01c0.19,0.76,0.38,1.5,0.56,2.21c0.08,0.32,0.16,0.63,0.24,0.94c1.15,4.71,1.72,8.42,2.09,12.15
				c0.22,2.11,0.37,4.22,0.52,6.51l26.7-2.29c1.07-18.82,0.59-29.15,0.1-34.32c-0.54-5.51-1.38-5.71-1.38-5.71s-4.73-0.47-9.44-0.53
				c-0.27-0.01-0.56-0.01-0.83-0.01h-0.9c-0.48,0.01-0.97,0.03-1.46,0.07c-0.61,0.02-1.22,0.06-1.83,0.11
				c-2.81,0.19-5.61,0.53-8.38,1.02c-0.1,0.02-0.21,0.04-0.31,0.05c-0.57,0.1-1.13,0.2-1.69,0.3c-2.3,0.44-4.58,0.97-6.84,1.61
				C72.898,230.119,72.108,231.589,72.578,232.959z"/>
			<path style="fill:#E4897B;" d="M91.574,232.252c-6.232-0.798-8.105-3.46-8.105-3.46c3.954-3.731,0.669-10.196,0.669-10.196
				l7.502,1.401c-0.197,1.24-0.281,2.28-0.293,3.158c-0.057,4.553,2.002,4.598,2.002,4.598
				C94.665,230.219,91.574,232.252,91.574,232.252z"/>
			<path style="opacity:0.2;enable-background:new    ;" d="M91.64,219.997c-0.197,1.24-0.281,2.28-0.293,3.158
				c-5.067,0-7.209-4.559-7.209-4.559L91.64,219.997z"/>
			<polygon style="fill:#407BFF;" points="109.36,268.805 97.36,270.125 96.02,265.575 95.54,270.125 79.01,270.985 79.37,264.185 
				79.62,259.475 79.48,259.075 78.28,255.635 76.4,250.205 75.51,241.855 74.15,229.215 76.92,228.545 79.67,227.885 81.7,227.395 
				93.67,237.885 95.54,225.425 97.42,225.655 100.42,226.015 104.75,226.545 108.84,242.295 108.22,256.055 107.98,261.455 
				107.89,263.505 			"/>
			<path style="opacity:0.7;fill:#FFFFFF;" d="M108.22,256.055l-0.24,5.4l-28.61,2.73l0.25-4.71l-0.14-0.4l8.3-0.87
				c-0.22-3.73-0.9-10.21-3.01-15.19c-2.24-5.28-5.92-11.39-7.85-14.47l2.75-0.66c2.03,2.78,5.19,7.58,6.99,12.63
				c2.02,5.66,3.78,13.43,4.6,17.32l11.36-1.19c0.23-3.2,0.56-10.05-0.35-15.93c-0.78-5.08-3.2-11.26-4.85-15.06l3,0.36
				c1.82,3.92,4.15,9.73,4.61,14.65c0.58,6.08,0.39,12.62,0.25,15.7L108.22,256.055z"/>
			<path style="opacity:0.2;enable-background:new    ;" d="M78.28,255.635l-1.88-5.43l-0.89-8.35c0.43-0.16,0.9-0.28,1.41-0.35
				C76.92,241.505,80.16,249.845,78.28,255.635z"/>
		</g>
		<g>
			<path style="fill:#263238;" d="M96.947,207.367c0,0,3.111-11.738-8.049-12.442c-14.323-0.904-18.736,19.795-4.76,22.896
				C98.114,220.922,96.947,207.367,96.947,207.367z"/>
			<path style="fill:#E4897B;" d="M97.004,217.01c-0.06,0.222-0.119,0.436-0.188,0.641c-0.871,2.648-2.734,4.28-6.014,4.348
				c-0.453,0.017-0.931,0-1.435-0.051c-0.299-0.034-0.624-0.077-0.948-0.128c-11.208-1.828-11.754-22.202-0.923-22.8
				c6.518-0.359,8.807,3.024,9.653,9.713C97.55,211.918,97.576,214.772,97.004,217.01z"/>
			<path style="fill:#DE5753;" d="M92.914,208.601c0,0,0.997,1.654,2.046,2.601c0,0-0.51,0.917-1.679,0.832L92.914,208.601z"/>
			<g>
				<path style="fill:#263238;" d="M88.894,208.286c0.042,0.535-0.213,0.991-0.57,1.019c-0.357,0.028-0.68-0.383-0.722-0.918
					c-0.042-0.535,0.213-0.991,0.57-1.019C88.529,207.34,88.852,207.751,88.894,208.286z"/>
				<path style="fill:#263238;" d="M88.025,207.406l1.128-0.548C89.153,206.858,88.651,207.883,88.025,207.406z"/>
			</g>
			<g>
				<path style="fill:#263238;" d="M95.535,207.654c0.042,0.535-0.213,0.991-0.57,1.019c-0.357,0.028-0.68-0.383-0.722-0.918
					c-0.042-0.535,0.214-0.991,0.57-1.019C95.171,206.709,95.494,207.12,95.535,207.654z"/>
				<path style="fill:#263238;" d="M94.667,206.774l1.128-0.547C95.795,206.227,95.292,207.251,94.667,206.774z"/>
			</g>
			
				<path style="fill:none;stroke:#263238;stroke-width:0.7247;stroke-linecap:round;stroke-linejoin:round;stroke-miterlimit:10;" d="
				M88.581,203.787c0,0-1.845-0.138-2.774,1.141"/>
			
				<path style="fill:none;stroke:#263238;stroke-width:0.7247;stroke-linecap:round;stroke-linejoin:round;stroke-miterlimit:10;" d="
				M93.306,203.252c0,0,1.128-0.49,2.628,0.394"/>
			<path style="fill:#263238;" d="M80.968,210.403c0,0,2.755-5.525,2.067-9.635c0,0,12.633-5.987,13.989,7.094
				c0,0,0.625-11.716-10.599-11.361c-11.206,0.354-10.278,16.751-4.221,21.321C82.204,217.821,79.265,213.857,80.968,210.403z"/>
			<path style="fill:#E4897B;" d="M82.108,211.721c-0.101-1.048-1.282-2.765-3.223-2.445c-2.009,0.331-2.745,4.533,2.336,5.254
				C81.951,214.634,82.32,213.906,82.108,211.721z"/>
			<path style="fill:none;stroke:#263238;stroke-width:0.5;stroke-linecap:round;stroke-linejoin:round;stroke-miterlimit:10;" d="
				M89.81,213.225c0,0,0.506,2.028,3.104,2.253"/>
			<g>
				<path style="fill:none;stroke:#263238;stroke-width:0.5;stroke-linecap:round;stroke-linejoin:round;stroke-miterlimit:10;" d="
					M92.01,208.901c0,1.477-1.197,2.674-2.674,2.674c-1.477,0-2.674-1.197-2.674-2.674c0-1.477,1.197-2.674,2.674-2.674
					C90.813,206.227,92.01,207.424,92.01,208.901z"/>
				<path style="fill:none;stroke:#263238;stroke-width:0.5;stroke-linecap:round;stroke-linejoin:round;stroke-miterlimit:10;" d="
					M99.023,207.828c0,1.477-1.197,2.674-2.674,2.674c-1.477,0-2.674-1.197-2.674-2.674s1.197-2.674,2.674-2.674
					C97.826,205.154,99.023,206.352,99.023,207.828z"/>
				<path style="fill:none;stroke:#263238;stroke-width:0.5;stroke-linecap:round;stroke-linejoin:round;stroke-miterlimit:10;" d="
					M91.95,208.337c0,0,1.042-1.132,1.739-0.234"/>
				
					<line style="fill:none;stroke:#263238;stroke-width:0.5;stroke-linecap:round;stroke-linejoin:round;stroke-miterlimit:10;" x1="86.662" y1="208.901" x2="80.784" y2="209.307"/>
			</g>
			<path style="fill:#263238;" d="M85.077,195.61c0,0,4.672-0.233,8.229,1.7c3.558,1.933,3.724,4.89,3.724,4.89l-1.24-0.46
				l-2.485-1.99c0,0,0.451,0.676,0.503,2.028c0,0-0.776-1.657-1.859-1.927c0,0,0.5,1.42-0.588,2.349c0,0-0.441-1.605-1.44-2.112
				c0,0,0.186,0.929-1.674,2.112c0,0,0.091-1.605-1.054-2.281c0,0-0.894,1.69-2.118,1.943c0,0,0.911-0.845,0.731-1.352
				c0,0-1.608,1.521-3.64,1.69C80.136,202.369,77.429,198.06,85.077,195.61z"/>
			<path d="M79.006,202.584c0,0,4.27,17.891,13.241,19.743l1.754-0.53c0,0-4.777,0.08-8.105-5.255
				c-3.328-5.335-5.593-14.241-5.593-14.241L79.006,202.584z"/>
			<g>
				<path style="fill:#407BFF;" d="M99.461,199.344c-4.447,5.506-16.173,1.488-20.306,4.608c-4.107,3.098-3.488,6.008-3.48,6.045
					c-2.896,0.895-1.32-3.854-1.32-3.854c-3.06-9.316,2.592-14.683,11.286-15.706c8.144-0.958,10.381,7.24,10.381,7.24
					L99.461,199.344z"/>
				<path style="opacity:0.2;enable-background:new    ;" d="M96.021,197.676c-1.833,3.251-13.283,2.411-17.558,3.854
					c-4.275,1.443-4.109,4.613-4.109,4.613c-3.06-9.316,2.592-14.683,11.286-15.706C93.785,189.479,96.021,197.676,96.021,197.676z"
					/>
				<path style="fill:#407BFF;" d="M79.629,192.589c3.463-1.256,7.323,1.673,8.828,3.798s4.661,1.342,4.724-1.031
					c0.063-2.373-2.118-6.867-2.118-6.867s-14.338-0.261-16.222,7.767C74.842,196.257,76.066,193.882,79.629,192.589z"/>
			</g>
			<path style="fill:#263238;" d="M90.207,222.405c0,0,1.015-1.189,2.619-1.488c1.603-0.299,2.228,0.001,2.228,0.001
				s-0.427,1.083-2.183,1.67C91.115,223.175,90.207,222.405,90.207,222.405z"/>
		</g>
		<g>
			<polygon style="fill:#407BFF;" points="83.768,226.556 88.898,229.032 91.362,231.307 91.95,228.931 91.64,224.977 
				95.698,226.556 97.031,231.702 94.62,230.318 92.819,235.757 87.627,232.252 86.489,234.472 81.697,228.538 			"/>
			<polygon style="opacity:0.5;fill:#FFFFFF;enable-background:new    ;" points="81.698,228.539 86.488,234.469 87.628,232.249 
				92.818,235.759 94.618,230.319 97.028,231.699 95.698,226.559 91.638,224.979 91.948,228.929 91.358,231.309 88.898,229.029 
				83.768,226.559 			"/>
			<polygon style="opacity:0.2;enable-background:new    ;" points="86.488,234.469 87.628,232.249 92.818,235.759 87.888,230.369 
							"/>
			<polygon style="opacity:0.2;enable-background:new    ;" points="92.818,235.759 94.618,230.319 97.028,231.699 94.228,228.279 
							"/>
		</g>
		<path style="fill:none;stroke:#263238;stroke-miterlimit:10;" d="M105.421,249.023c0,0-0.938,14.936,12.414,14.045
			c11.683-0.779,23.593-40.53,26.387-50.455c0.371-1.318,1.576-2.227,2.945-2.227h1.868"/>
		<g>
			<polygon style="fill:#263238;" points="107.891,250.186 94.88,250.186 97.005,229.845 110.016,229.845 			"/>
			<polygon style="opacity:0.2;fill:#FFFFFF;" points="97.8,250.186 94.88,250.186 97.005,229.845 99.925,229.845 			"/>
		</g>
		<path style="fill:#263238;" d="M150.056,210.385c0,0.595-0.482,1.078-1.078,1.078c-0.595,0-1.078-0.482-1.078-1.078
			c0-0.595,0.483-1.078,1.078-1.078C149.574,209.307,150.056,209.79,150.056,210.385z"/>
		<path style="fill:#E4897B;" d="M87.889,251.793l4.067-2.771c0,0,0.228-2.306,0.674-2.768c0.446-0.462,7.223-2.493,8.622-2.374
			c1.399,0.12,1.648,5.143,0.33,6.462c-1.319,1.319-6.725,2.439-7.121,1.978l-4.254,2.637L87.889,251.793z"/>
		<g>
			<path style="fill:#407BFF;" d="M72.944,230.7c-3.841,2.047-8.397,31.122-2.668,35.821c5.729,4.699,22.542-12.225,22.542-12.225
				l-2.777-5.984c0,0-10.274,8.664-12.889,7.195c-2.616-1.468,0-9.69,0-9.69s0.707-3.997,0-8.533
				C76.446,232.747,72.944,230.7,72.944,230.7z"/>
			<path style="opacity:0.6;fill:#FFFFFF;enable-background:new    ;" d="M72.944,230.7c-3.841,2.047-8.397,31.122-2.668,35.821
				c5.729,4.699,22.542-12.225,22.542-12.225l-2.777-5.984c0,0-10.274,8.664-12.889,7.195c-2.616-1.468,0-9.69,0-9.69
				s0.707-3.997,0-8.533C76.446,232.747,72.944,230.7,72.944,230.7z"/>
		</g>
	</g>
</g>
<g id="Pipe">
	<g>
		<g>
			<path style="fill:#407BFF;" d="M423.36,302.1c0,15.47-4.25,28.02-9.49,28.02H293.14c-5.25,0-9.5-12.55-9.5-28.02
				c0-15.48,4.25-28.02,9.5-28.02h120.73C419.11,274.08,423.36,286.62,423.36,302.1z"/>
			<path style="opacity:0.4;fill:#FFFFFF;" d="M423.36,302.1c0,15.47-4.25,28.02-9.49,28.02H293.14c-5.25,0-9.5-12.55-9.5-28.02
				c0-15.48,4.25-28.02,9.5-28.02h120.73C419.11,274.08,423.36,286.62,423.36,302.1z"/>
		</g>
		<g>
			<path style="fill:#407BFF;" d="M303.496,271.382c-1.799,0-8.201,0-10,0c-6.143,0-11.123,13.653-11.123,30.495
				c0,16.842,4.98,30.495,11.123,30.495c1.799,0,8.201,0,10,0c6.143,0,11.123-13.653,11.123-30.495
				C314.619,285.034,309.639,271.382,303.496,271.382z"/>
			<ellipse style="opacity:0.4;fill:#FFFFFF;" cx="293.496" cy="301.876" rx="11.123" ry="30.494"/>
			<path style="opacity:0.2;fill:#FFFFFF;" d="M303.496,271.382c-1.799,0-8.201,0-10,0c-6.143,0-11.123,13.653-11.123,30.495
				c0,16.842,4.98,30.495,11.123,30.495c1.799,0,8.201,0,10,0c6.143,0,11.123-13.653,11.123-30.495
				C314.619,285.034,309.639,271.382,303.496,271.382z"/>
		</g>
		<g>
			<path style="fill:#407BFF;" d="M291.496,271.382c-1.799,0-8.201,0-10,0c-6.143,0-11.123,13.653-11.123,30.495
				c0,16.842,4.98,30.495,11.123,30.495c1.799,0,8.201,0,10,0c6.143,0,11.123-13.653,11.123-30.495
				C302.619,285.034,297.639,271.382,291.496,271.382z"/>
			<ellipse style="opacity:0.4;fill:#FFFFFF;" cx="281.496" cy="301.876" rx="11.123" ry="30.494"/>
			<path style="opacity:0.2;fill:#FFFFFF;" d="M291.496,271.382c-1.799,0-8.201,0-10,0c-6.143,0-11.123,13.653-11.123,30.495
				c0,16.842,4.98,30.495,11.123,30.495c1.799,0,8.201,0,10,0c6.143,0,11.123-13.653,11.123-30.495
				C302.619,285.034,297.639,271.382,291.496,271.382z"/>
		</g>
		<g>
			<path style="fill:#407BFF;" d="M288.36,302.1c0,15.47-4.25,28.02-9.49,28.02h-90.73c-5.25,0-9.5-12.55-9.5-28.02
				c0-15.48,4.25-28.02,9.5-28.02h90.73C284.11,274.08,288.36,286.62,288.36,302.1z"/>
			<path style="opacity:0.4;fill:#FFFFFF;" d="M288.36,302.1c0,15.47-4.25,28.02-9.49,28.02h-90.73c-5.25,0-9.5-12.55-9.5-28.02
				c0-15.48,4.25-28.02,9.5-28.02h90.73C284.11,274.08,288.36,286.62,288.36,302.1z"/>
		</g>
		<g>
			<path style="fill:#407BFF;" d="M212.496,271.382c-1.799,0-8.201,0-10,0c-6.143,0-11.123,13.653-11.123,30.495
				c0,16.842,4.98,30.495,11.123,30.495c1.799,0,8.201,0,10,0c6.143,0,11.123-13.653,11.123-30.495
				C223.619,285.034,218.639,271.382,212.496,271.382z"/>
			<ellipse style="opacity:0.4;fill:#FFFFFF;" cx="202.496" cy="301.876" rx="11.123" ry="30.494"/>
			<path style="opacity:0.2;fill:#FFFFFF;" d="M212.496,271.382c-1.799,0-8.201,0-10,0c-6.143,0-11.123,13.653-11.123,30.495
				c0,16.842,4.98,30.495,11.123,30.495c1.799,0,8.201,0,10,0c6.143,0,11.123-13.653,11.123-30.495
				C223.619,285.034,218.639,271.382,212.496,271.382z"/>
		</g>
		<g>
			<path style="fill:#407BFF;" d="M200.87,274.08h-51.354v56.04h51.354c5.24,0,9.49-12.55,9.49-28.02
				C210.36,286.62,206.11,274.08,200.87,274.08z"/>
			<path style="opacity:0.4;fill:#FFFFFF;" d="M200.87,274.08h-51.354v56.04h51.354c5.24,0,9.49-12.55,9.49-28.02
				C210.36,286.62,206.11,274.08,200.87,274.08z"/>
		</g>
		<g>
			<g>
				<rect x="137.769" y="116.451" style="fill:#407BFF;" width="56.04" height="301.187"/>
				<rect x="137.769" y="116.451" style="opacity:0.4;fill:#FFFFFF;" width="56.04" height="301.187"/>
			</g>
			<path style="fill:#407BFF;" d="M194.544,355h-57.51c-0.771,0-1.396-0.625-1.396-1.396v-7.89c0-0.771,0.625-1.396,1.396-1.396
				h57.51c0.771,0,1.396,0.625,1.396,1.396v7.89C195.939,354.375,195.314,355,194.544,355z"/>
			<path style="fill:#407BFF;" d="M194.544,264h-57.51c-0.771,0-1.396-0.625-1.396-1.396v-7.89c0-0.771,0.625-1.396,1.396-1.396
				h57.51c0.771,0,1.396,0.625,1.396,1.396v7.89C195.939,263.375,195.314,264,194.544,264z"/>
			<polygon style="fill:#407BFF;" points="198.939,418 132.638,418 135.638,414.539 195.939,414.539 			"/>
			<path style="fill:#407BFF;" d="M194.544,216h-57.51c-0.771,0-1.396-0.625-1.396-1.396v-17.89c0-0.771,0.625-1.396,1.396-1.396
				h57.51c0.771,0,1.396,0.625,1.396,1.396v17.89C195.939,215.375,195.314,216,194.544,216z"/>
			<path style="opacity:0.2;fill:#FFFFFF;" d="M194.544,355h-57.51c-0.771,0-1.396-0.625-1.396-1.396v-7.89
				c0-0.771,0.625-1.396,1.396-1.396h57.51c0.771,0,1.396,0.625,1.396,1.396v7.89C195.939,354.375,195.314,355,194.544,355z"/>
			<path style="opacity:0.2;fill:#FFFFFF;" d="M194.544,264h-57.51c-0.771,0-1.396-0.625-1.396-1.396v-7.89
				c0-0.771,0.625-1.396,1.396-1.396h57.51c0.771,0,1.396,0.625,1.396,1.396v7.89C195.939,263.375,195.314,264,194.544,264z"/>
			<path style="opacity:0.2;fill:#FFFFFF;" d="M194.544,216h-57.51c-0.771,0-1.396-0.625-1.396-1.396v-17.89
				c0-0.771,0.625-1.396,1.396-1.396h57.51c0.771,0,1.396,0.625,1.396,1.396v17.89C195.939,215.375,195.314,216,194.544,216z"/>
		</g>
		<g>
			<g>
				<path style="fill:#407BFF;" d="M137.754,198.306c-0.434,0-1.977,0-2.411,0c-1.481,0-2.682,3.292-2.682,7.353
					c0,4.061,1.201,7.353,2.682,7.353c0.434,0,1.978,0,2.411,0c1.481,0,2.682-3.292,2.682-7.353
					C140.436,201.598,139.236,198.306,137.754,198.306z"/>
				<ellipse style="opacity:0.4;fill:#FFFFFF;" cx="135.343" cy="205.659" rx="2.682" ry="7.353"/>
				<path style="opacity:0.1;fill:#FFFFFF;" d="M137.754,198.306c-0.434,0-1.977,0-2.411,0c-1.481,0-2.682,3.292-2.682,7.353
					c0,4.061,1.201,7.353,2.682,7.353c0.434,0,1.978,0,2.411,0c1.481,0,2.682-3.292,2.682-7.353
					C140.436,201.598,139.236,198.306,137.754,198.306z"/>
			</g>
			<g>
				<path style="fill:#407BFF;" d="M133.966,203.352c-0.223,0-11.287,0-11.51,0c-0.761,0-1.377,1.033-1.377,2.307
					c0,1.274,0.617,2.307,1.377,2.307c0.223,0,11.287,0,11.51,0c0.761,0,1.377-1.033,1.377-2.307
					C135.343,204.385,134.726,203.352,133.966,203.352z"/>
				<path style="opacity:0.4;fill:#FFFFFF;" d="M123.833,205.659c0,1.274-0.617,2.307-1.377,2.307c-0.761,0-1.377-1.033-1.377-2.307
					c0-1.274,0.617-2.307,1.377-2.307C123.216,203.352,123.833,204.385,123.833,205.659z"/>
				<path style="opacity:0.1;fill:#FFFFFF;" d="M133.966,203.352c-0.223,0-11.287,0-11.51,0c-0.761,0-1.377,1.033-1.377,2.307
					c0,1.274,0.617,2.307,1.377,2.307c0.223,0,11.287,0,11.51,0c0.761,0,1.377-1.033,1.377-2.307
					C135.343,204.385,134.726,203.352,133.966,203.352z"/>
			</g>
			<g>
				<path style="fill:#407BFF;" d="M120.173,199.369c0.751,0,3.426,0,4.177,0c2.566,0,4.646,2.816,4.646,6.29s-2.08,6.29-4.646,6.29
					c-0.751,0-3.425,0-4.177,0c-2.566,0-4.646-2.816-4.646-6.29S117.607,199.369,120.173,199.369z"/>
				<path style="opacity:0.1;fill:#FFFFFF;" d="M120.173,199.369c0.751,0,3.426,0,4.177,0c2.566,0,4.646,2.816,4.646,6.29
					s-2.08,6.29-4.646,6.29c-0.751,0-3.425,0-4.177,0c-2.566,0-4.646-2.816-4.646-6.29S117.607,199.369,120.173,199.369z"/>
				<path style="opacity:0.2;" d="M119.704,205.659c0,3.474,2.08,6.29,4.646,6.29c2.566,0,4.646-2.816,4.646-6.29
					c0-3.474-2.08-6.29-4.646-6.29C121.784,199.369,119.704,202.185,119.704,205.659z"/>
			</g>
		</g>
		<g>
			<path style="fill:#407BFF;" d="M303.806,307.548c0.901,0,0.725,0,1.626,0c3.077,0,5.571-3.441,5.571-7.687
				c0-4.245-2.494-7.687-5.571-7.687c-0.901,0-0.725,0-1.626,0c-3.077,0-5.571,3.442-5.571,7.687
				C298.235,304.107,300.729,307.548,303.806,307.548z"/>
			<path style="opacity:0.4;fill:#FFFFFF;" d="M299.861,299.861c0-4.245,2.494-7.687,5.571-7.687s5.571,3.442,5.571,7.687
				s-2.494,7.687-5.571,7.687S299.861,304.107,299.861,299.861z"/>
			<path style="opacity:0.2;fill:#FFFFFF;" d="M303.806,307.548c0.901,0,0.725,0,1.626,0c3.077,0,5.571-3.441,5.571-7.687
				c0-4.245-2.494-7.687-5.571-7.687c-0.901,0-0.725,0-1.626,0c-3.077,0-5.571,3.442-5.571,7.687
				C298.235,304.107,300.729,307.548,303.806,307.548z"/>
		</g>
		<path style="fill:#407BFF;" d="M307.264,284.916c-5.854,0-10.599,6.872-10.599,15.349c0,8.477,4.745,15.349,10.599,15.349
			c5.853,0,10.599-6.872,10.599-15.349C317.862,291.788,313.117,284.916,307.264,284.916z M302.974,299.861h-4.296
			c0.057-2.795,0.698-5.4,1.738-7.535l3.117,5.691C303.229,298.526,303.031,299.159,302.974,299.861z M302.987,300.861
			c0.076,0.627,0.27,1.189,0.545,1.652l-3.117,5.691c-1.016-2.085-1.649-4.62-1.731-7.342H302.987z M307.681,300.861h8.161
			c-0.083,2.753-0.73,5.315-1.766,7.414l-6.58-6.56C307.582,301.447,307.645,301.162,307.681,300.861z M307.695,299.861
			c-0.03-0.37-0.095-0.721-0.198-1.046l6.58-6.561c1.06,2.148,1.715,4.78,1.772,7.607H307.695z M313.58,291.336l-6.537,6.519
			c-0.219-0.325-0.48-0.59-0.772-0.771l1.379-10.136C309.969,287.117,312.078,288.786,313.58,291.336z M306.638,286.967
			l-1.339,9.844c-0.386,0.008-0.745,0.158-1.066,0.402l-3.251-5.936C302.429,288.847,304.43,287.228,306.638,286.967z
			 M300.981,309.253l3.251-5.936c0.319,0.242,0.676,0.391,1.06,0.401l1.321,9.844C304.416,313.291,302.424,311.674,300.981,309.253z
			 M307.625,313.585l-1.36-10.134c0.295-0.181,0.557-0.448,0.777-0.775l6.537,6.518
			C312.073,311.754,309.954,313.426,307.625,313.585z"/>
	</g>
</g>
<g id="Character_2">
	<g id="_x3C_Group_x3E__9_">
		<path style="fill:#263238;" d="M327.848,294.667l-5.411-2.857c0,0-1.649-2.256-1.93-3.251c-0.282-0.994-3.975-4.545-5.459-4.134
			c-1.484,0.411-5.067,6.988-3.703,7.907c1.364,0.919,5.576,2.474,6.255,2.6c0.678,0.126,2.301-0.025,2.301-0.025l5.029,3.962
			L327.848,294.667z"/>
		<path style="fill:#263238;" d="M357.802,292.23c0,0-17.181,6.413-19.112,6.456c-1.931,0.042-14.651-7.478-14.651-7.478
			l-4.045,5.362c0,0,11.509,10.077,14.272,12.233c2.764,2.156,26.071-3.097,26.071-3.097S362.709,299.036,357.802,292.23z"/>
		<path style="opacity:0.3;fill:#FFFFFF;" d="M357.802,292.23c0,0-17.181,6.413-19.112,6.456
			c-1.931,0.042-14.651-7.478-14.651-7.478l-4.045,5.362c0,0,11.509,10.077,14.272,12.233c2.764,2.156,26.071-3.097,26.071-3.097
			S362.709,299.036,357.802,292.23z"/>
		<polygon style="fill:#E4897B;" points="342.58,412.348 335.825,413.774 328.606,401.908 335.362,400.482 		"/>
		<path style="fill:#263238;" d="M334.462,410.914h7.561c0.255,0.001,0.475,0.179,0.53,0.427l1.227,5.542
			c0.105,0.496-0.212,0.984-0.708,1.089c-0.066,0.014-0.134,0.021-0.202,0.02c-2.446-0.04-4.228-0.19-7.299-0.19
			c-1.892,0-7.6,0.198-10.213,0.198c-2.613,0-2.953-2.581-1.884-2.818c4.798-1.045,8.408-2.494,9.944-3.871
			C333.702,411.049,334.076,410.907,334.462,410.914z"/>
		<path style="fill:#407BFF;" d="M332.404,412.007c-0.423,0.034-0.845-0.078-1.195-0.317c-0.233-0.192-0.35-0.492-0.309-0.792
			c-0.005-0.175,0.095-0.337,0.253-0.412c0.689-0.356,2.7,0.879,2.921,1.021c0.052,0.027,0.081,0.085,0.071,0.143
			c-0.008,0.061-0.051,0.111-0.111,0.127C333.501,411.914,332.954,411.991,332.404,412.007z M331.477,410.716
			c-0.066-0.005-0.132,0.008-0.19,0.04c-0.04,0-0.087,0.055-0.095,0.174c-0.025,0.199,0.049,0.397,0.198,0.53
			c0.698,0.316,1.49,0.356,2.217,0.111C332.958,411.153,332.235,410.863,331.477,410.716z"/>
		<path style="fill:#407BFF;" d="M333.995,411.785h-0.071c-0.641-0.348-1.884-1.718-1.758-2.375
			c0.045-0.226,0.244-0.389,0.475-0.388c0.226-0.03,0.454,0.04,0.625,0.19c0.72,0.586,0.871,2.375,0.879,2.462
			c0.001,0.054-0.026,0.105-0.071,0.135C334.046,411.81,334.018,411.801,333.995,411.785z M332.744,409.26h-0.071
			c-0.19,0-0.206,0.111-0.214,0.15c-0.079,0.404,0.712,1.441,1.354,1.924c-0.042-0.709-0.298-1.389-0.736-1.948
			C332.985,409.305,332.866,409.26,332.744,409.26z"/>
		<polygon style="opacity:0.2;enable-background:new    ;" points="335.362,400.482 328.606,401.908 332.334,408.028 
			339.089,406.602 		"/>
		<path style="fill:#263238;" d="M364.902,372.154c-0.364-0.016-4.473-0.04-4.853-0.071c-7.64-0.633-15.652-2.621-21.819-4.481
			c-6.365-1.916-10.767-3.697-10.767-3.697c-1.457,8.439,12.24,40.813,12.24,40.813l-11.187,0.697c0,0-31.272-46.133-17.947-60.51
			c9.951-10.735,36.948,0.918,36.948,0.918l7.053-14.895l29.895,1.713C384.465,332.64,390.924,373.54,364.902,372.154z"/>
		<polygon style="fill:#407BFF;" points="329.043,406.737 340.193,404.955 339.124,401.922 326.993,404.449 		"/>
		<polygon style="fill:#E4897B;" points="418.314,399.695 418.898,405.89 404.593,407.753 404.009,401.55 		"/>
		<path style="fill:#263238;" d="M418.261,406.817l-0.709-7.527c-0.023-0.254,0.133-0.49,0.376-0.568l5.402-1.741
			c0.484-0.151,0.999,0.119,1.15,0.603c0.02,0.065,0.033,0.132,0.039,0.199c0.19,2.439,0.207,4.227,0.495,7.285
			c0.177,1.884,0.909,7.548,1.154,10.149c0.245,2.601-2.293,3.182-2.629,2.14c-1.49-4.678-3.271-8.137-4.786-9.537
			C418.466,407.561,418.29,407.202,418.261,406.817z"/>
		<path style="fill:#407BFF;" d="M419.542,408.763c0.073,0.418,0.002,0.848-0.203,1.22c-0.17,0.25-0.457,0.395-0.759,0.382
			c-0.174,0.021-0.344-0.063-0.434-0.214c-0.419-0.652,0.622-2.77,0.743-3.004c0.022-0.055,0.077-0.089,0.135-0.084
			c0.061,0.002,0.115,0.041,0.137,0.098C419.346,407.68,419.474,408.217,419.542,408.763z M418.344,409.807
			c0.001,0.066,0.021,0.13,0.057,0.185c0.004,0.039,0.063,0.081,0.182,0.078c0.2,0.006,0.39-0.086,0.51-0.247
			c0.25-0.725,0.215-1.517-0.097-2.217C418.64,408.291,418.418,409.038,418.344,409.807z"/>
		<path style="fill:#407BFF;" d="M419.172,407.2l0.007,0.071c-0.287,0.671-1.534,2.037-2.2,1.972
			c-0.229-0.024-0.41-0.207-0.431-0.437c-0.051-0.222-0.003-0.456,0.131-0.64c0.516-0.772,2.283-1.09,2.369-1.106
			c0.054-0.006,0.107,0.016,0.141,0.058C419.191,407.147,419.186,407.176,419.172,407.2z M416.775,408.682l0.007,0.071
			c0.018,0.189,0.13,0.195,0.17,0.199c0.409,0.041,1.368-0.844,1.789-1.528c-0.702,0.108-1.354,0.427-1.87,0.915
			C416.798,408.438,416.764,408.56,416.775,408.682z"/>
		<polygon style="opacity:0.2;enable-background:new    ;" points="404.017,401.549 404.6,407.753 411.977,406.788 411.393,400.585 
					"/>
		<path style="fill:#263238;" d="M409.64,409.38c0,0-40.35,11.8-50.4,4.68c-4.94-3.5-6.83-12.36-7.12-22.42
			c-0.21-6.69,0.3-13.92,1.09-20.44c1.31-10.84,3.39-19.75,4.3-21.09c0,0,27.02-0.75,26.26,5.99c-0.75,6.74-15.14,41.53-11.98,44.29
			c3.17,2.75,37.15-1.32,37.15-1.32L409.64,409.38z"/>
		<polygon style="fill:#407BFF;" points="407.519,398.282 408.349,410.717 411.467,409.931 410.063,397.62 		"/>
		<polygon style="opacity:0.5;fill:#FFFFFF;" points="329.043,406.737 340.193,404.955 339.124,401.922 326.993,404.449 		"/>
		<polygon style="opacity:0.5;fill:#FFFFFF;" points="407.519,398.282 408.349,410.717 411.467,409.931 410.063,397.62 		"/>
		<g>
			<path style="fill:#263238;" d="M341.395,277.412c0.143,0.489-0.072,0.963-0.397,1.033c-0.325,0.07-0.679-0.281-0.791-0.779
				c-0.112-0.497,0.072-0.963,0.397-1.033C340.928,276.564,341.29,276.938,341.395,277.412z"/>
			<path style="fill:#892B29;" d="M341.892,277.779c-0.263,1.66-0.754,3.276-1.46,4.801c0.804,0.346,1.72,0.319,2.503-0.074
				L341.892,277.779z"/>
			<path style="fill:#263238;" d="M340.147,274.639c-0.002,0-0.004,0.001-0.006,0.002c-0.158,0.047-0.248,0.214-0.2,0.372
				c0.028,0.054,0.073,0.097,0.127,0.124c0.064,0.063,0.152,0.095,0.241,0.088c0.731-0.228,1.527-0.096,2.147,0.355
				c0.125,0.105,0.311,0.092,0.422-0.028c0,0,0,0,0-0.001c0.109-0.125,0.096-0.313-0.029-0.422
				C342.082,274.536,341.074,274.353,340.147,274.639z"/>
			<path style="fill:#B97964;" d="M343.444,284.749c0.159,0.281,0.325,0.554,0.507,0.809c1.072,1.546,2.556,2.656,4.191,3.274
				c0.428,0.165,0.87,0.295,1.316,0.393c2.357,0.507,4.869,0.042,6.829-1.524c0.805-0.63,1.525-1.458,2.095-2.477
				c2.27-3.995,1.204-7.611-0.108-13.867c-0.262-1.352-0.83-2.625-1.676-3.706c-2.949-3.822-8.442-4.521-12.256-1.573
				C338.964,270.173,340.61,279.563,343.444,284.749z"/>
			<path style="opacity:0.2;enable-background:new    ;" d="M348.141,288.831c0.428,0.165,0.87,0.295,1.316,0.393
				c2.357,0.507,4.869,0.042,6.829-1.524c-0.755-1.073-1.665-1.794-1.665-1.794S350.786,286.333,348.141,288.831z"/>
			<path style="fill:#B97964;" d="M362.696,293.474c-2.29,3.577-10,4.565-10,4.565s-4.983-0.017-4.4-1.73
				c2.612-1.19,3.591-2.823,3.697-4.603c0.06-1.036-0.181-2.119-0.566-3.197c-0.196-0.568-0.441-1.13-0.7-1.681l7.353-9.288
				C358.088,282.357,358.846,291.019,362.696,293.474z"/>
			<path style="fill:#263238;" d="M343.251,263.485c1.419-1.123,5.678-3.145,8.622-3.148c9.103-0.009,9.401,5.243,9.401,5.243
				c-1.344-1.449-2.831-1.785-2.831-1.785c9.899,9.237,0.907,20.614,0.907,20.614c-3.814-0.672-8.027,1.665-8.027,1.665
				s-2.419-5.342-4.402-6.758c-1.983-1.416-3.872-5.004-3.879-7.28c-0.008-2.275-1.893-0.716-1.893-0.716
				C339.199,270.22,341.17,265.132,343.251,263.485z"/>
			<path style="fill:#B97964;" d="M348.9,277.73c-0.006,1.44-0.478,2.623-1.311,3.291c-1.111,0.871-2.412-0.674-2.731-2.575
				c-0.271-1.688-0.046-4.228,1.38-4.286C347.662,274.102,348.889,275.955,348.9,277.73z"/>
			<g>
				<path d="M343.824,269.088c0,0-0.296,14.503,2.786,18.988c0,0-3.885-2.702-3.841-18.328L343.824,269.088z"/>
				<path style="fill:#407BFF;" d="M348.141,267.242c0,0,5.441,5.275,9.529,6.264c4.088,0.989,5.558-1.451,5.558-1.451l-0.532-4.401
					c0,0,0.117,3.384-1.531,3.727c-1.648,0.344-5.441-0.408-9.94-4.779L348.141,267.242z"/>
				<path style="opacity:0.4;fill:#FFFFFF;" d="M348.141,267.242c0,0,5.441,5.275,9.529,6.264c4.088,0.989,5.558-1.451,5.558-1.451
					l-0.532-4.401c0,0,0.117,3.384-1.531,3.727c-1.648,0.344-5.441-0.408-9.94-4.779L348.141,267.242z"/>
				<path style="fill:#407BFF;" d="M339.015,271.694c0,0-0.537-6.43,1.959-9.434c2.496-3.004,9.744-4.647,14.427-3.539
					c4.683,1.108,7.229,7.152,7.415,8.38c0.433,2.854-10.262-2.178-16.312,0.091C340.454,269.462,339.015,271.694,339.015,271.694z"
					/>
				<path style="opacity:0.2;enable-background:new    ;" d="M339.015,271.694c0,0-0.537-6.43,1.959-9.434
					c2.496-3.004,9.744-4.647,14.427-3.539c4.683,1.108,7.229,7.152,7.415,8.38c0.433,2.854-10.262-2.178-16.312,0.091
					C340.454,269.462,339.015,271.694,339.015,271.694z"/>
				<path style="fill:#407BFF;" d="M341.785,261.468c0,0,0.364-3.192,1.361-4.017c0.997-0.825,9.343-1.849,11.852-0.838
					c2.509,1.011,6.321,5.512,7.052,10.833l-4.053,0.57c0,0-1.328-6.037-4.932-7.717
					C348.912,258.363,341.785,261.468,341.785,261.468z"/>
				<path style="fill:#407BFF;" d="M337.062,274.933c0,0,3.279,0.771,5.9-3.268c2.621-4.039,8.282-4.32,12.759-3.307
					c5.26,1.19,9.665,0.501,9.665,0.501l-2.57-1.758c0,0-3.273,0.771-9.002-1.003s-13.239,2.083-14.799,5.596L337.062,274.933z"/>
			</g>
		</g>
		<path style="fill:#407BFF;" d="M385.07,333.67l-34.81,5.61c-0.58-8.14-1.57-15.93-2.69-22.91c-0.12-0.82-0.26-1.62-0.39-2.41
			c-0.29-1.73-0.71-3.71-1.19-5.75c-1.19-5.1-2.72-10.61-3.41-13.67c0,0,12.89-4.67,23.15-2.07
			C377.86,295.54,385.07,333.67,385.07,333.67z"/>
		<path style="opacity:0.2;enable-background:new    ;" d="M375.26,364.71c-0.23,0.78-7.57,24.79-23.14,26.93
			c-0.21-6.69,0.3-13.92,1.09-20.44c0,0,6.77,1.08,10.61,0.94C367.66,372,374.26,367.28,375.26,364.71z"/>
		<path style="opacity:0.7;fill:#FFFFFF;" d="M384.1,329.13l-34.19,5.95c-0.13-1.61-0.29-3.21-0.47-4.79l15.27-3.03
			c-0.98-4.93-3-13.86-5.85-20.52c-3-6.99-7.92-11.73-10.44-13.82c0.6-0.14,1.23-0.27,1.89-0.39c10.63,7.97,16.01,26.33,17.86,34.05
			l9.66-1.92c-0.85-4.51-2.97-14.52-6.1-21.82c-1.93-4.5-4.66-8.08-7.04-10.61c0.35,0.07,0.7,0.15,1.04,0.24
			c0.88,0.22,1.73,0.63,2.56,1.2c7.85,9.71,11.79,24.67,13.06,30.29l1.4-0.27C383.3,325.74,383.74,327.59,384.1,329.13z"/>
		<path style="opacity:0.2;enable-background:new    ;" d="M347.57,316.37c-0.12-0.82-0.26-1.62-0.39-2.41
			c-0.29-1.73-0.71-3.71-1.19-5.75c0.88-0.75,1.86-1.33,2.91-1.61C348.9,306.6,349.91,312.69,347.57,316.37z"/>
		<path style="fill:#263238;" d="M313.868,312.366l-6.082-0.669c0,0-2.363-1.492-2.99-2.314c-0.627-0.821-5.367-2.766-6.596-1.839
			c-1.229,0.928-2.144,8.361-0.538,8.714c1.606,0.354,6.095,0.251,6.772,0.119c0.677-0.132,2.13-0.869,2.13-0.869l6.133,1.837
			L313.868,312.366z"/>
		<path style="fill:#263238;" d="M344.757,295.439c0,0-17.549,15.931-19.329,16.68c-1.78,0.749-16.374-1.571-16.374-1.571
			l-1.791,6.474c0,0,14.407,5.143,17.769,6.132c3.363,0.989,23.108-12.462,23.108-12.462S351.823,299.965,344.757,295.439z"/>
		<path style="opacity:0.4;fill:#FFFFFF;" d="M344.757,295.439c0,0-17.549,15.931-19.329,16.68
			c-1.78,0.749-16.374-1.571-16.374-1.571l-1.791,6.474c0,0,14.407,5.143,17.769,6.132c3.363,0.989,23.108-12.462,23.108-12.462
			S351.823,299.965,344.757,295.439z"/>
	</g>
</g>
</svg>
